HIERARCHY
ROOT hip
{
  OFFSET 0 0 0
  CHANNELS 6 Xposition Yposition Zposition Zrotation Yrotation Xrotation
  JOINT abdomen
  {
    OFFSET 0 20.6881 -0.73152
    CHANNELS 3 Zrotation Xrotation Yrotation
    JOINT chest
    {
      OFFSET 0 11.7043 -0.48768
      CHANNELS 3 Zrotation Xrotation Yrotation
      JOINT neck
      {
        OFFSET 0 22.1894 -2.19456
        CHANNELS 3 Zrotation Xrotation Yrotation
        JOINT head
        {
          OFFSET -0.24384 7.07133 1.2192
          CHANNELS 3 Zrotation Xrotation Yrotation
          JOINT leftEye
          {
            OFFSET 4.14528 8.04674 8.04672
            CHANNELS 3 Zrotation Xrotation Yrotation
            End Site
            {
              OFFSET 1 0 0
            }
          }
          JOINT rightEye
          {
            OFFSET -3.6576 8.04674 8.04672
            CHANNELS 3 Zrotation Xrotation Yrotation
            End Site
            {
              OFFSET 1 0 0
            }
          }
        }
      }
      JOINT rCollar
      {
        OFFSET -2.68224 19.2634 -4.8768
        CHANNELS 3 Zrotation Xrotation Yrotation
        JOINT rShldr
        {
          OFFSET -8.77824 -1.95073 1.46304
          CHANNELS 3 Zrotation Xrotation Yrotation
          JOINT rForeArm
          {
            OFFSET -28.1742 -1.7115 0.48768
            CHANNELS 3 Zrotation Xrotation Yrotation
            JOINT rHand
            {
              OFFSET -22.5879 0.773209 7.07136
              CHANNELS 3 Zrotation Xrotation Yrotation
              JOINT rThumb1
              {
                OFFSET -1.2192 -0.487915 3.41376
                CHANNELS 3 Zrotation Xrotation Yrotation
                JOINT rThumb2
                {
                  OFFSET -3.37035 -0.52449 3.41376
                  CHANNELS 3 Zrotation Xrotation Yrotation
                  End Site
                  {
                    OFFSET -1.78271 -1.18214 1.43049
                  }
                }
              }
              JOINT rIndex1
              {
                OFFSET -7.75947 0.938293 5.60832
                CHANNELS 3 Zrotation Xrotation Yrotation
                JOINT rIndex2
                {
                  OFFSET -2.54057 -0.884171 1.56538
                  CHANNELS 3 Zrotation Xrotation Yrotation
                  End Site
                  {
                    OFFSET -1.62519 -0.234802 1.16502
                  }
                }
              }
              JOINT rMid1
              {
                OFFSET -8.24714 1.18213 3.41376
                CHANNELS 3 Zrotation Xrotation Yrotation
                JOINT rMid2
                {
                  OFFSET -3.10165 -0.590103 1.0647
                  CHANNELS 3 Zrotation Xrotation Yrotation
                  End Site
                  {
                    OFFSET -2.48547 -0.328903 0.83742
                  }
                }
              }
              JOINT rRing1
              {
                OFFSET -8.82822 0.546677 1.51678
                CHANNELS 3 Zrotation Xrotation Yrotation
                JOINT rRing2
                {
                  OFFSET -2.60934 -0.819778 -0.0198488
                  CHANNELS 3 Zrotation Xrotation Yrotation
                  End Site
                  {
                    OFFSET -2.33842 -0.294052 0.168128
                  }
                }
              }
              JOINT rPinky1
              {
                OFFSET -8.27202 -0.0477905 -0.4584
                CHANNELS 3 Zrotation Xrotation Yrotation
                JOINT rPinky2
                {
                  OFFSET -1.82734 -0.647385 -0.700984
                  CHANNELS 3 Zrotation Xrotation Yrotation
                  End Site
                  {
                    OFFSET -1.69225 -0.51767 -0.607171
                  }
                }
              }
            }
          }
        }
      }
      JOINT lCollar
      {
        OFFSET 2.68224 19.2634 -4.8768
        CHANNELS 3 Zrotation Xrotation Yrotation
        JOINT lShldr
        {
          OFFSET 8.77824 -1.95073 1.46304
          CHANNELS 3 Zrotation Xrotation Yrotation
          JOINT lForeArm
          {
            OFFSET 28.1742 -1.7115 0.48768
            CHANNELS 3 Zrotation Xrotation Yrotation
            JOINT lHand
            {
              OFFSET 22.5879 0.773209 7.07136
              CHANNELS 3 Zrotation Xrotation Yrotation
              JOINT lThumb1
              {
                OFFSET 1.2192 -0.487915 3.41376
                CHANNELS 3 Zrotation Xrotation Yrotation
                JOINT lThumb2
                {
                  OFFSET 3.37035 -0.52449 3.41376
                  CHANNELS 3 Zrotation Xrotation Yrotation
                  End Site
                  {
                    OFFSET 1.78271 -1.18214 1.43049
                  }
                }
              }
              JOINT lIndex1
              {
                OFFSET 7.75947 0.938293 5.60832
                CHANNELS 3 Zrotation Xrotation Yrotation
                JOINT lIndex2
                {
                  OFFSET 2.54057 -0.884171 1.56538
                  CHANNELS 3 Zrotation Xrotation Yrotation
                  End Site
                  {
                    OFFSET 1.62519 -0.234802 1.16502
                  }
                }
              }
              JOINT lMid1
              {
                OFFSET 8.24714 1.18213 3.41376
                CHANNELS 3 Zrotation Xrotation Yrotation
                JOINT lMid2
                {
                  OFFSET 3.10165 -0.590103 1.0647
                  CHANNELS 3 Zrotation Xrotation Yrotation
                  End Site
                  {
                    OFFSET 2.48547 -0.328903 0.83742
                  }
                }
              }
              JOINT lRing1
              {
                OFFSET 8.82822 0.546677 1.51678
                CHANNELS 3 Zrotation Xrotation Yrotation
                JOINT lRing2
                {
                  OFFSET 2.60934 -0.819778 -0.0198488
                  CHANNELS 3 Zrotation Xrotation Yrotation
                  End Site
                  {
                    OFFSET 2.33842 -0.294052 0.168128
                  }
                }
              }
              JOINT lPinky1
              {
                OFFSET 8.27202 -0.0477905 -0.4584
                CHANNELS 3 Zrotation Xrotation Yrotation
                JOINT lPinky2
                {
                  OFFSET 1.82734 -0.647385 -0.700984
                  CHANNELS 3 Zrotation Xrotation Yrotation
                  End Site
                  {
                    OFFSET 1.69225 -0.51767 -0.607171
                  }
                }
              }
            }
          }
        }
      }
    }
  }
  JOINT rButtock
  {
    OFFSET -8.77824 4.35084 1.2192
    CHANNELS 3 Zrotation Xrotation Yrotation
    JOINT rThigh
    {
      OFFSET 0 -1.70687 -2.19456
      CHANNELS 3 Zrotation Xrotation Yrotation
      JOINT rShin
      {
        OFFSET 0 -36.8199 0.73152
        CHANNELS 3 Zrotation Xrotation Yrotation
        JOINT rFoot
        {
          OFFSET 0.73152 -45.1104 -5.12064
          CHANNELS 3 Zrotation Xrotation Yrotation
          End Site
          {
            OFFSET -1.1221 -3.69964 12.103
          }
        }
      }
    }
  }
  JOINT lButtock
  {
    OFFSET 8.77824 4.35084 1.2192
    CHANNELS 3 Zrotation Xrotation Yrotation
    JOINT lThigh
    {
      OFFSET 0 -1.70687 -2.19456
      CHANNELS 3 Zrotation Xrotation Yrotation
      JOINT lShin
      {
        OFFSET 0 -36.8199 0.73152
        CHANNELS 3 Zrotation Xrotation Yrotation
        JOINT lFoot
        {
          OFFSET -0.73152 -45.1104 -5.12064
          CHANNELS 3 Zrotation Xrotation Yrotation
          End Site
          {
            OFFSET 1.1221 -3.69964 12.103
          }
        }
      }
    }
  }
}
MOTION
Frames:	4
Frame Time:	0.00833333
33.653103 57.010403 8.10785 -161.68698 79.027 -161.713 2.2162795 17.259 16.677397 -3.2172503 -12.093101 4.4192905 0.4033049 14.183998 13.9534 -1.3849101 -21.799 27.302797 0.0 0.0 0.0 0.0 0.0 0.0 -6.38711e-15 1.46904e-13 -2.64881e-14 -17.5384 41.7002 79.4472 -23.749907 -49.7056 104.065 -9.799772 -62.919502 -15.9531975 4.9373e-10 2.5912898e-09 -5.08797e-10 8.71399e-10 4.49636e-09 -8.4368496e-10 4.93735e-10 2.5912898e-09 -5.08791e-10 7.730911 5.47488 0.41731405 4.9373e-10 2.5912898e-09 -5.08791e-10 2.90554 0.965183 0.102902 4.93735e-10 2.5912898e-09 -5.08792e-10 10.2786 0.73180103 0.025912303 4.93727e-10 2.5912898e-09 -5.0877597e-10 2.2216702 -0.733487 -0.20892 -6.45973e-15 1.4689701e-13 -2.66868e-14 -3.8325002 38.6866 -91.45871 27.472698 -28.0606 -64.1549 1.4835799 -32.221603 5.08875 6.8481404e-10 -2.37193e-10 6.47644e-10 1.16683e-09 -4.2634402e-10 1.1324599e-09 6.84813e-10 -2.3718702e-10 6.4766104e-10 -7.730911 5.47488 -0.41731405 6.84817e-10 -2.37194e-10 6.47646e-10 -2.90554 0.965183 -0.102902 6.84811e-10 -2.37182e-10 6.47643e-10 -10.2786 0.73180103 -0.025912303 6.84819e-10 -2.37181e-10 6.47632e-10 -2.2216702 -0.733487 0.20892 -2.03217e-16 8e-44 -3.88251e-19 -49.351803 -41.464703 -39.632404 -118.540955 88.7604 118.86996 -5.64316 -26.370903 -7.1463103 2.03217e-16 8e-44 3.88251e-19 59.980698 -51.6134 45.313297 164.98799 85.4829 -165.22798 3.6219902 -24.122398 4.9015694
33.7844 56.9739 8.093471 -162.239 78.871 -162.324 2.5031002 16.9268 16.8929 -4.18584 -11.365601 4.41335 0.6705089 14.1264 13.908 -1.0680397 -22.126198 27.2583 0.0 0.0 0.0 0.0 0.0 0.0 -1.18411e-15 -5.64161e-15 2.96686e-14 -13.525599 45.67 74.0897 -23.4577 -50.064304 104.957 -10.463198 -63.933 -16.695002 2.62639e-10 1.14771e-09 -5.56232e-11 4.52722e-10 1.9569701e-09 -7.88571e-11 2.62643e-10 1.14771e-09 -5.5626198e-11 7.730911 5.47488 0.41731405 2.6263702e-10 1.14771e-09 -5.5623603e-11 2.90554 0.965183 0.102902 2.62643e-10 1.14771e-09 -5.5623495e-11 10.2786 0.73180103 0.025912303 2.62635e-10 1.14771e-09 -5.56128e-11 2.2216702 -0.733487 -0.20892 -1.40016e-15 -5.64542e-15 2.94698e-14 -7.9025908 39.1549 -85.3654 27.8147 -29.590603 -66.5672 1.6004301 -33.393604 5.318181 9.4120704e-11 -2.7693198e-10 3.09656e-10 1.5651601e-10 -4.80906e-10 5.33938e-10 9.41182e-11 -2.76933e-10 3.0967298e-10 -7.730911 5.47488 -0.41731405 9.41216e-11 -2.76933e-10 3.09652e-10 -2.90554 0.965183 -0.102902 9.41145e-11 -2.76929e-10 3.09656e-10 -10.2786 0.73180103 -0.025912303 9.41226e-11 -2.7693e-10 3.09646e-10 -2.2216702 -0.733487 0.20892 -2.03217e-16 8e-44 -3.88251e-19 -49.437702 -41.2207 -39.6185 -122.010086 88.714 122.34015 -5.65134 -26.512999 -7.133099 2.03217e-16 8e-44 3.88251e-19 59.896904 -51.5363 45.328995 165.12799 85.438805 -165.36598 3.62959 -24.233898 4.9135394
33.905502 56.9129 8.09677 -162.52998 78.707 -162.63399 2.6822796 16.6547 17.0773 -4.6440096 -11.055198 4.433389 0.836408 14.2201 13.816601 -0.9388236 -22.262798 27.0938 0.0 0.0 0.0 0.0 0.0 0.0 3.94505e-14 2.76667e-14 2.8055e-15 -8.947472 49.6394 67.8934 -23.233997 -50.323597 105.623985 -10.933298 -64.5995 -17.216505 -2.05138e-10 -1.8107299e-09 5.48091e-10 -3.80124e-10 -3.32804e-09 9.2793e-10 -2.05134e-10 -1.8107299e-09 5.48083e-10 7.730911 5.47488 0.41731405 -2.05141e-10 -1.8107299e-09 5.48086e-10 2.90554 0.965183 0.102902 -2.05134e-10 -1.81072e-09 5.48087e-10 10.2786 0.73180103 0.025912303 -2.05142e-10 -1.8107299e-09 5.48095e-10 2.2216702 -0.733487 -0.20892 3.92243e-14 2.7665499e-14 2.61021e-15 -12.3136015 39.2939 -79.186295 28.042202 -30.880903 -68.6834 1.63246 -33.7082 5.38074 -5.1793003e-10 -1.10929994e-10 -6.46787e-11 -8.90717e-10 -1.87621e-10 -1.27261e-10 -5.17934e-10 -1.1093199e-10 -6.46657e-11 -7.730911 5.47488 -0.41731405 -5.1793003e-10 -1.10929994e-10 -6.46874e-11 -2.90554 0.965183 -0.102902 -5.17938e-10 -1.10929994e-10 -6.4679005e-11 -10.2786 0.73180103 -0.025912303 -5.17928e-10 -1.1093199e-10 -6.46882e-11 -2.2216702 -0.733487 0.20892 -2.03217e-16 8e-44 -3.88251e-19 -49.495304 -41.0118 -39.655495 -125.64992 88.6566 125.98616 -5.8055887 -26.604996 -7.35734 2.03217e-16 8e-44 3.88251e-19 59.9193 -51.4668 45.350895 165.33197 85.3722 -165.569 3.5776799 -24.4005 4.81726
34.039803 56.8438 8.11032 -162.496 78.558 -162.628 2.7527802 16.4426 17.230501 -4.59174 -11.1619 4.47887 0.9019661 14.4653 13.679099 -0.9962727 -22.207998 26.8089 0.0 0.0 0.0 0.0 0.0 0.0 1.1551701e-13 2.46829e-13 -1.07077006e-13 -3.5494928 53.5989 60.685196 -23.088 -50.490196 106.053 -11.1696 -64.9222 -17.4777 -9.0960195e-10 -6.28402e-09 1.30235e-09 -1.62714e-09 -1.13587e-08 2.17668e-09 -9.09598e-10 -6.28402e-09 1.30234e-09 7.730911 5.47488 0.41731405 -9.0960395e-10 -6.2840297e-09 1.30234e-09 2.90554 0.965183 0.102902 -9.09597e-10 -6.28402e-09 1.30234e-09 10.2786 0.73180103 0.025912303 -9.0960606e-10 -6.2840297e-09 1.30235e-09 2.2216702 -0.733487 -0.20892 1.15414e-13 2.4682998e-13 -1.07265996e-13 -17.031496 39.0921 -72.87909 28.202902 -32.005203 -70.4656 1.5730097 -33.166 5.27151 -1.15134e-09 2.60814e-10 -4.7536e-10 -1.97487e-09 4.53511e-10 -8.5113405e-10 -1.15134e-09 2.60815e-10 -4.7535503e-10 -7.730911 5.47488 -0.41731405 -1.15134e-09 2.60815e-10 -4.75372e-10 -2.90554 0.965183 -0.102902 -1.15135e-09 2.60816e-10 -4.75361e-10 -10.2786 0.73180103 -0.025912303 -1.15133e-09 2.60814e-10 -4.7536897e-10 -2.2216702 -0.733487 0.20892 -2.03217e-16 8e-44 -3.88251e-19 -49.523804 -40.838104 -39.742596 -129.36194 88.5869 129.70888 -6.1066604 -26.6458 -7.819291 2.03217e-16 8e-44 3.88251e-19 60.0479 -51.4049 45.378994 165.59702 85.283 -165.83 3.4649298 -24.6223 4.6122203
